<?xml version="1.0" standalone="no"?>
<!DOCTYPE svg PUBLIC "-//W3C//DTD SVG 20010904//EN"
 "http://www.w3.org/TR/2001/REC-SVG-20010904/DTD/svg10.dtd">
<svg version="1.0" xmlns="http://www.w3.org/2000/svg"
 width="100.000000pt" height="100.000000pt" viewBox="0 0 100.000000 100.000000"
 preserveAspectRatio="xMidYMid meet">
<metadata>
Created by potrace 1.11, written by Peter Selinger 2001-2013
</metadata>
<g transform="translate(0.000000,100.000000) scale(0.100000,-0.100000)"
fill="#000000" stroke="none">
<path d="M101 979 c-12 -12 -26 -31 -31 -43 -11 -30 -11 -823 1 -867 17 -67
28 -69 434 -69 396 0 405 1 424 65 6 17 10 208 9 445 0 440 0 441 -47 477 -12
9 -115 12 -392 12 -366 1 -376 0 -398 -20z m697 -108 c9 -1 12 -32 12 -120 0
-86 -3 -120 -12 -123 -11 -3 -557 -3 -595 1 -10 1 -13 32 -13 120 0 104 2 120
17 123 15 3 560 2 591 -1z m-488 -433 c0 -39 -4 -58 -12 -59 -52 -4 -85 -5
-95 -1 -14 4 -19 103 -6 116 4 4 31 6 60 5 l53 -2 0 -59z m246 51 c10 -17 6
-102 -6 -109 -12 -7 -98 -5 -106 3 -7 7 -7 94 0 106 4 6 29 11 56 11 27 0 52
-5 56 -11z m252 -176 c2 -169 1 -183 -15 -184 -40 -3 -94 -1 -99 3 -7 8 -6
347 2 359 3 6 29 9 57 7 l52 -3 3 -182z m-500 -125 c2 -42 -1 -58 -10 -59 -54
-5 -85 -5 -95 -1 -14 4 -19 103 -6 116 4 4 30 6 58 4 l50 -3 3 -57z m246 53
c9 -13 10 -100 2 -108 -9 -9 -103 -9 -112 0 -8 8 -7 95 2 108 7 12 101 12 108
0z"/>
</g>
</svg>
